# xmcd CD database file
#
# Track frame offsets:
#	150
#	24793
#	54851
#	79541
#	111218
#	144357
#	172795
#	203128
#	235065
#
# Disc length: 3433 seconds
#
# Revision: 0
# Processed by: cddbd v1.5.2PL0 Copyright (c) Steve Scherf et al.
# Submitted via: CDex 1.70beta3
#
DISCID=5d0d6709
DTITLE=New York-Tokyo Connection - New York and the Night and the Music
DYEAR=2007
DGENRE=Jazz
TTITLE0=You and the Night and the Music
TTITLE1=Local Blues at 11
TTITLE2=The Crimson Petal
TTITLE3=Light One
TTITLE4=Scarborogh Fair
TTITLE5=Off the Cuff
TTITLE6=Glorious
TTITLE7=You Don't Know What Love Is
TTITLE8=Haru no Ogawa(Spring Brook)
EXTD=YEAR: 2007
EXTT0=
EXTT1=
EXTT2=
EXTT3=
EXTT4=
EXTT5=
EXTT6=
EXTT7=
EXTT8=
PLAYORDER=
